HIERARCHY
ROOT Hips
{
	OFFSET 0.000000 0.000000 0.000000
	CHANNELS 6 Xposition Yposition Zposition Zrotation Yrotation Xrotation 
	JOINT LHipJoint
	{
		OFFSET 0.000000 0.000000 0.000000
		CHANNELS 3 Zrotation Yrotation Xrotation
		JOINT LeftUpLeg
		{
			OFFSET 1.363060 -1.794630 0.839290
			CHANNELS 3 Zrotation Yrotation Xrotation
			JOINT LeftLeg
			{
				OFFSET 2.448110 -6.726130 0.000000
				CHANNELS 3 Zrotation Yrotation Xrotation
				JOINT LeftFoot
				{
					OFFSET 2.562200 -7.039590 0.000000
					CHANNELS 3 Zrotation Yrotation Xrotation
					JOINT LeftToeBase
					{
						OFFSET 0.157640 -0.433110 2.322550
						CHANNELS 3 Zrotation Yrotation Xrotation
						End Site
						{
							OFFSET 0.000000 0.000000 0.000000
						}
					}
				}
			}
		}
	}
	JOINT RHipJoint
	{
		OFFSET 0.000000 0.000000 0.000000
		CHANNELS 3 Zrotation Yrotation Xrotation
		JOINT RightUpLeg
		{
			OFFSET -1.305520 -1.794630 0.839290
			CHANNELS 3 Zrotation Yrotation Xrotation
			JOINT RightLeg
			{
				OFFSET -2.542530 -6.985550 0.000000
				CHANNELS 3 Zrotation Yrotation Xrotation
				JOINT RightFoot
				{
					OFFSET -2.568260 -7.056230 0.000000
					CHANNELS 3 Zrotation Yrotation Xrotation
					JOINT RightToeBase
					{
						OFFSET -0.164730 -0.452590 2.363150
						CHANNELS 3 Zrotation Yrotation Xrotation
						End Site
						{
							OFFSET 0.000000 0.000000 0.000000
						}
					}
				}
			}
		}
	}
	JOINT LowerBack
	{
		OFFSET 0.000000 0.000000 0.000000
		CHANNELS 3 Zrotation Yrotation Xrotation
		JOINT Spine
		{
			OFFSET 0.028270 2.035590 -0.193380
			CHANNELS 3 Zrotation Yrotation Xrotation
			JOINT Spine1
			{
				OFFSET 0.056720 2.048850 -0.042750
				CHANNELS 3 Zrotation Yrotation Xrotation
				JOINT Neck
				{
					OFFSET 0.000000 0.000000 0.000000
					CHANNELS 3 Zrotation Yrotation Xrotation
					JOINT Neck1
					{
						OFFSET -0.054170 1.746240 0.172020
						CHANNELS 3 Zrotation Yrotation Xrotation
						JOINT Head
						{
							OFFSET 0.104070 1.761360 -0.123970
							CHANNELS 3 Zrotation Yrotation Xrotation
							End Site
							{
								OFFSET 0.000000 0.000000 0.000000
							}
						}
					}
				}
				JOINT LeftShoulder
				{
					OFFSET 0.000000 0.000000 0.000000
					CHANNELS 3 Zrotation Yrotation Xrotation
					JOINT LeftArm
					{
						OFFSET 3.362410 1.200890 -0.311210
						CHANNELS 3 Zrotation Yrotation Xrotation
						JOINT LeftForeArm
						{
							OFFSET 4.983000 -0.000000 -0.000000
							CHANNELS 3 Zrotation Yrotation Xrotation
							JOINT LeftHand
							{
								OFFSET 3.483560 -0.000000 -0.000000
								CHANNELS 3 Zrotation Yrotation Xrotation
								JOINT LeftFingerBase
								{
									OFFSET 0.000000 0.000000 0.000000
									CHANNELS 3 Zrotation Yrotation Xrotation
									JOINT LeftHandIndex1
									{
										OFFSET 0.715260 -0.000000 -0.000000
										CHANNELS 3 Zrotation Yrotation Xrotation
										End Site
										{
											OFFSET 0.000000 0.000000 0.000000
										}
									}
								}
								JOINT LThumb
								{
									OFFSET 0.000000 0.000000 0.000000
									CHANNELS 3 Zrotation Yrotation Xrotation
									End Site
									{
										OFFSET 0.000000 0.000000 0.000000
									}
								}
							}
						}
					}
				}
				JOINT RightShoulder
				{
					OFFSET 0.000000 0.000000 0.000000
					CHANNELS 3 Zrotation Yrotation Xrotation
					JOINT RightArm
					{
						OFFSET -3.136600 1.374050 -0.404650
						CHANNELS 3 Zrotation Yrotation Xrotation
						JOINT RightForeArm
						{
							OFFSET -5.241900 -0.000000 -0.000000
							CHANNELS 3 Zrotation Yrotation Xrotation
							JOINT RightHand
							{
								OFFSET -3.444170 -0.000000 -0.000000
								CHANNELS 3 Zrotation Yrotation Xrotation
								JOINT RightFingerBase
								{
									OFFSET 0.000000 0.000000 0.000000
									CHANNELS 3 Zrotation Yrotation Xrotation
									JOINT RightHandIndex1
									{
										OFFSET -0.622530 -0.000000 -0.000000
										CHANNELS 3 Zrotation Yrotation Xrotation
										End Site
										{
											OFFSET 0.000000 0.000000 0.000000
										}
									}
								}
								JOINT RThumb
								{
									OFFSET 0.000000 0.000000 0.000000
									CHANNELS 3 Zrotation Yrotation Xrotation
									End Site
									{
										OFFSET 0.000000 0.000000 0.000000
									}
								}
							}
						}
					}
				}
			}
		}
	}
}
MOTION
Frames: 6
Frame Time: 0.008333
9.889955 24.371113 15.516444 -177.066529 -3.528840 179.716038 0.859249 2.992209 1.157394 -13.707250 -30.658706 -5.737536 -3.054620 6.916905 19.978417 -0.949141 9.497951 -22.827265 12.430700 18.566900 67.347800 -3.771766 -2.803061 1.282438 24.933933 35.372995 -1.440854 3.122154 -5.115733 15.217730 -4.809493 -1.876078 -38.435368 -12.345400 -18.532900 67.079500 3.314807 -0.239176 11.906052 8.304970 -0.142293 11.149936 -5.377836 -0.246335 -18.980435 -9.961754 -3.246836 -17.387850 11.974122 -4.234998 8.602832 2.038900 -1.889800 3.786300 -1.982528 -8.801829 0.122717 63.257233 -27.556024 -102.496484 18.658417 -27.826195 -2.402243 -1.589128 0.093083 -7.847022 25.439983 -49.761455 -21.101700 -7.125000 0.000000 0.000000 -6.858200 -22.177800 8.987500 0.132804 8.589523 2.011079 -52.949558 31.939894 -88.664256 -22.956249 33.955795 -5.968423 -0.818797 -0.928238 2.199414 -13.804884 -37.152533 7.796200 7.125000 0.000000 0.000000 26.740600 -65.099700 -13.435900 
9.879424 24.273209 15.388219 -177.235265 -3.553648 179.270996 0.898752 2.955549 1.213150 -13.846422 -29.484194 -6.130349 -3.144221 6.804593 19.667624 -1.615315 10.715800 -21.638656 12.370500 18.542900 67.158400 -3.739623 -2.784286 1.260565 24.466661 36.219261 -1.452103 3.012103 -5.243593 15.395161 -5.257697 -0.729380 -38.872628 -12.370800 -18.543000 67.159500 3.372520 -0.305085 12.317242 8.369750 -0.214140 11.332752 -5.422217 -0.279627 -19.198399 -10.246183 -3.162963 -17.456084 12.254362 -4.118071 8.738316 2.168300 -1.820300 3.836400 -1.939993 -8.791598 0.127290 63.310084 -27.633872 -101.295941 18.721699 -27.991691 -2.501181 -1.606532 0.093155 -8.290972 24.054445 -49.527600 -19.921200 -7.125000 0.000000 0.000000 -7.402200 -21.635100 9.670600 0.113445 8.575867 2.038487 -54.165482 32.478546 -88.521748 -22.812142 33.881710 -5.958427 -0.822662 -0.875743 2.397330 -13.483830 -36.645287 7.515700 7.125000 0.000000 0.000000 26.558500 -64.609400 -13.038200 
9.871786 24.155747 15.255250 -177.675022 -3.485252 178.821213 0.895982 2.929770 1.331750 -14.246655 -27.956530 -6.576301 -3.218728 6.698632 19.344822 -2.198220 11.714251 -20.205387 12.272500 18.503500 66.850000 -3.738168 -2.772530 1.275678 23.762692 37.015965 -1.477395 2.914118 -5.354798 15.600516 -5.554561 -0.021942 -39.191837 -12.371700 -18.543400 67.162300 3.280425 -0.224461 12.115703 8.001635 -0.159735 12.057265 -5.333610 -0.201230 -19.060127 -10.153433 -3.093445 -17.171183 12.306902 -4.082079 8.405852 2.169400 -1.821500 3.698900 -1.853791 -8.848917 0.105603 63.621290 -27.632291 -100.622608 18.818810 -28.211907 -2.612288 -1.627627 0.101661 -8.427069 22.885145 -49.252381 -18.920400 -7.125000 0.000000 0.000000 -7.841000 -21.116900 10.212100 0.104182 8.567865 1.993069 -55.215473 32.456094 -88.314729 -22.729524 33.867932 -5.963175 -0.848994 -0.814368 2.836871 -14.428871 -36.387918 8.038100 7.125000 0.000000 0.000000 25.335100 -64.694300 -12.449400 
9.864264 24.020116 15.116032 -178.178733 -3.526517 178.527518 0.909248 2.861658 1.330166 -14.767995 -26.529741 -7.115495 -3.325434 6.605266 18.986749 -3.237288 13.979495 -18.853519 11.985700 18.384600 65.943500 -3.741423 -2.747332 1.213208 22.988836 37.816822 -1.488006 2.840104 -5.440328 15.760646 -5.745286 0.331780 -39.499680 -12.345800 -18.533000 67.080900 3.196596 -0.196006 12.732955 7.590742 -0.054609 11.674816 -5.243174 -0.160631 -19.429066 -9.964201 -3.121405 -17.220318 12.078862 -4.118325 8.788818 2.075000 -1.823200 3.787300 -1.831434 -8.776418 0.155288 63.825548 -28.009241 -99.829909 18.955995 -28.473338 -2.731063 -1.643365 0.120399 -8.240077 21.804974 -49.092796 -18.027600 -7.125000 0.000000 0.000000 -8.279100 -20.736200 10.760300 0.170796 8.578333 2.034582 -56.119495 32.712464 -87.735350 -22.581329 33.780601 -5.936171 -0.855451 -0.784373 3.375334 -13.936493 -36.218480 7.712400 7.125000 0.000000 0.000000 25.703900 -64.426000 -12.482500 
9.854890 23.877078 14.975424 -178.509285 -3.806409 178.222796 0.942355 2.832999 1.311398 -15.173521 -25.532376 -7.595756 -3.455849 6.489453 18.444057 -5.338258 19.130252 -17.277933 11.269700 18.064500 63.654200 -3.760416 -2.729813 1.199336 22.356227 38.492573 -1.570638 2.729307 -5.566333 15.997466 -5.978480 1.111385 -39.457567 -12.368000 -18.541900 67.150600 3.367039 -0.226789 12.926555 7.280685 -0.037846 11.773887 -5.290623 -0.171366 -19.530686 -9.878959 -3.096428 -17.335891 11.947415 -4.068893 8.849918 2.021000 -1.798300 3.810100 -1.792502 -8.789615 0.175438 64.105888 -27.976681 -99.217437 19.095489 -28.764873 -2.855002 -1.659394 0.142232 -7.900339 20.997945 -48.941447 -17.361200 -7.125000 0.000000 0.000000 -8.598000 -20.428900 11.155300 0.211276 8.589743 2.020690 -57.159911 32.501650 -87.232873 -22.357133 33.627533 -5.879655 -0.866116 -0.751319 3.631690 -13.821427 -35.772037 7.560300 7.125000 0.000000 0.000000 25.380400 -64.023400 -12.078300 
9.846326 23.727676 14.832618 -178.725604 -4.021106 177.854654 0.986381 2.860923 1.280918 -15.528511 -24.967890 -7.770236 -3.487652 6.386080 17.839953 -7.297543 24.089014 -15.056344 10.187500 17.513900 60.113200 -3.780535 -2.734327 1.224397 21.830773 38.774899 -1.747686 2.650918 -5.675785 16.260956 -5.944693 1.447588 -38.856639 -12.404900 -18.556600 67.266600 3.466612 -0.173990 12.966535 7.314171 0.036167 12.041574 -5.383489 -0.142741 -19.517164 -9.903866 -3.092640 -17.301279 11.872121 -4.055794 8.795102 1.994400 -1.798900 3.788900 -1.783454 -8.820668 0.170401 64.103630 -27.737341 -98.159024 19.313283 -29.155749 -3.022470 -1.665159 0.148105 -8.021587 21.081332 -48.788594 -17.395100 -7.125000 0.000000 0.000000 -8.521300 -20.314900 11.044200 0.201553 8.609210 2.000635 -58.357279 32.186458 -87.129757 -22.165213 33.522241 -5.836746 -0.879802 -0.721447 3.843469 -13.687395 -35.538752 7.435000 7.125000 0.000000 0.000000 25.318200 -63.801600 -11.916200 
